<svg xmlns="http://www.w3.org/2000/svg" viewBox="0 0 1200 630" role="img" aria-label="Double MMK Management — Detroit property, managed right.">
  <defs>
    <linearGradient id="mmkRed" x1="0" y1="0" x2="0" y2="1">
      <stop offset="0" stop-color="#E84750"/><stop offset="0.5" stop-color="#C8202A"/><stop offset="1" stop-color="#6E1015"/>
    </linearGradient>
    <linearGradient id="mmkSilver" x1="0" y1="0" x2="0" y2="1">
      <stop offset="0" stop-color="#ffffff"/><stop offset="0.5" stop-color="#cdcdd3"/><stop offset="0.62" stop-color="#86868c"/><stop offset="1" stop-color="#dadadf"/>
    </linearGradient>
  </defs>
  <rect width="1200" height="630" fill="#0F0F11"/>
  <circle cx="1090" cy="100" r="320" fill="#C8202A" opacity="0.12"/>
  <!-- emblem -->
  <g transform="translate(86,176) scale(0.86)">
    <path d="M64 198 Q64 96 196 90" stroke="url(#mmkRed)" stroke-width="7" fill="none" stroke-linecap="round"/>
    <path d="M336 198 Q336 96 204 90" stroke="url(#mmkRed)" stroke-width="7" fill="none" stroke-linecap="round"/>
    <polygon points="37,300 37,242 95,196 153,242 153,300" fill="#8E1620"/>
    <polygon points="247,300 247,242 305,196 363,242 363,300" fill="#8E1620"/>
    <polygon points="130,300 130,230 200,174 270,230 270,300" fill="url(#mmkRed)"/>
    <rect x="186" y="252" width="28" height="48" fill="#0F0F11"/>
    <circle cx="200" cy="70" r="50" fill="#0F0F11" stroke="url(#mmkRed)" stroke-width="8"/>
    <text x="200" y="72" font-family="Archivo, Arial, sans-serif" font-weight="800" font-size="54" fill="url(#mmkSilver)" text-anchor="middle" dominant-baseline="central">D</text>
  </g>
  <!-- wordmark -->
  <text x="498" y="258" font-family="Archivo, Arial, sans-serif" font-weight="900" font-size="74" letter-spacing="-1" fill="url(#mmkSilver)">DOUBLE MMK</text>
  <text x="501" y="300" font-family="Archivo, Arial, sans-serif" font-weight="600" font-size="23" letter-spacing="9" fill="#C8202A">MANAGEMENT LLC</text>
  <rect x="501" y="332" width="104" height="5" rx="2" fill="#C8202A"/>
  <text x="501" y="392" font-family="Archivo, Arial, sans-serif" font-weight="700" font-size="35" fill="#F6F5F3">Detroit property, managed right.</text>
  <text x="503" y="436" font-family="Arial, sans-serif" font-size="23" fill="#8C8C92">Full-service property management · Detroit, MI</text>
</svg>
